<svg width="790" height="703" viewBox="0 0 790 703" fill="none" xmlns="http://www.w3.org/2000/svg">
<g clip-path="url(#clip0_322_2)">
<path d="M678.923 580.537C665.594 619.579 648.451 658.536 626.49 695.615C626.003 696.45 625.51 697.269 625.013 698.101L570.644 680.901C570.957 680.114 571.3 679.233 571.668 678.272C593.597 621.561 725.9 276.035 719.962 207.91C720.601 213.486 741.298 398.03 678.923 580.537Z" fill="#E6E6E6"/>
<path d="M636.979 698.934C636.24 699.689 635.482 700.439 634.719 701.172L593.933 688.268C594.484 687.601 595.126 686.815 595.865 685.927C607.944 671.175 643.856 627.008 678.923 580.537C716.609 530.597 753.326 478.004 758.471 456.393C757.438 461.307 725.255 610.904 636.979 698.934Z" fill="#E6E6E6"/>
<path d="M657.367 123.618C657.351 123.618 657.337 123.623 657.322 123.623V36.1938C657.322 26.7283 653.562 17.6504 646.868 10.9572C640.175 4.26408 631.097 0.503906 621.632 0.503906H347.912C338.446 0.503906 329.368 4.26408 322.675 10.9572C315.982 17.6504 312.222 26.7283 312.222 36.1938V81.0146C311.466 81.0308 310.747 81.3421 310.218 81.882C309.689 82.4219 309.392 83.1475 309.392 83.9033V106.104C309.392 106.859 309.689 107.585 310.218 108.125C310.747 108.665 311.466 108.976 312.222 108.992V132.249H312.077C311.696 132.249 311.32 132.323 310.969 132.469C310.618 132.614 310.298 132.828 310.029 133.096C309.761 133.365 309.547 133.684 309.402 134.036C309.256 134.387 309.182 134.763 309.182 135.144V178.073C309.182 178.453 309.256 178.83 309.402 179.181C309.547 179.532 309.761 179.852 310.029 180.12C310.298 180.389 310.618 180.602 310.969 180.748C311.32 180.893 311.696 180.968 312.077 180.968H312.222V198.019H312.177C311.796 198.019 311.42 198.093 311.069 198.239C310.717 198.384 310.398 198.598 310.13 198.866C309.861 199.135 309.647 199.454 309.502 199.806C309.356 200.157 309.282 200.533 309.282 200.914V244.263C309.282 244.643 309.356 245.02 309.502 245.371C309.647 245.722 309.861 246.041 310.13 246.31C310.398 246.579 310.717 246.792 311.069 246.938C311.42 247.083 311.796 247.158 312.177 247.158H312.222V666.184C312.222 675.65 315.982 684.727 322.675 691.421C329.368 698.114 338.446 701.874 347.912 701.874H621.632C631.097 701.874 640.175 698.114 646.868 691.421C653.562 684.727 657.322 675.65 657.322 666.184V208.634C657.337 208.634 657.351 208.638 657.367 208.638C658.044 208.638 658.714 208.505 659.339 208.246C659.965 207.987 660.533 207.607 661.012 207.128C661.491 206.65 661.87 206.082 662.129 205.456C662.388 204.831 662.522 204.16 662.522 203.483V128.773C662.522 127.406 661.979 126.095 661.012 125.128C660.045 124.161 658.734 123.618 657.367 123.618Z" fill="#3F3D56"/>
<path d="M636.012 46.1839V656.184C636.009 663.452 633.12 670.421 627.98 675.559C622.84 680.697 615.87 683.584 608.602 683.584H360.942C353.674 683.584 346.704 680.697 341.563 675.559C336.423 670.421 333.534 663.452 333.532 656.184V46.1839C333.532 38.9143 336.42 31.9425 341.56 26.8021C346.7 21.6618 353.672 18.7739 360.942 18.7739H398.002V23.5839C398.004 29.569 400.383 35.3083 404.615 39.5404C408.847 43.7725 414.587 46.1513 420.572 46.1539H546.572C552.549 46.1407 558.277 43.7569 562.499 39.5257C566.721 35.2944 569.092 29.5612 569.092 23.5839V18.8239H608.602C615.863 18.8239 622.827 21.7049 627.966 26.8344C633.105 31.964 635.998 38.923 636.012 46.1839V46.1839Z" fill="white"/>
<path d="M234.411 342.786C232.946 342.219 231.375 341.98 229.808 342.085C228.241 342.191 226.717 342.639 225.342 343.398C223.967 344.157 222.775 345.208 221.85 346.477C220.925 347.746 220.289 349.203 219.988 350.744L131.734 398.732L147.251 416.196L229.211 363.597C231.834 363.931 234.489 363.292 236.671 361.8C238.854 360.307 240.414 358.066 241.055 355.501C241.696 352.936 241.374 350.225 240.149 347.881C238.924 345.538 236.883 343.725 234.411 342.786H234.411Z" fill="#FFB8B8"/>
<path d="M211.903 688.055L222.9 680.942L200.697 635.139L184.466 645.637L211.903 688.055Z" fill="#FFB8B8"/>
<path d="M250.714 677.435L216.151 699.791L207.514 686.437L229.222 672.396C232.631 670.191 236.777 669.43 240.747 670.282C244.717 671.133 248.186 673.527 250.391 676.936L250.714 677.435L250.714 677.435Z" fill="#2F2E41"/>
<path d="M88.511 689.71H101.608L107.841 639.192H88.511V689.71Z" fill="#FFB8B8"/>
<path d="M126.867 701.871H85.7047V685.967H111.558C113.569 685.967 115.559 686.363 117.417 687.133C119.274 687.902 120.962 689.03 122.383 690.451C123.805 691.873 124.933 693.561 125.702 695.418C126.471 697.275 126.867 699.266 126.867 701.276V701.871V701.871Z" fill="#2F2E41"/>
<path d="M389 99.4961H362C361.337 99.4961 360.701 99.2327 360.232 98.7639C359.763 98.295 359.5 97.6591 359.5 96.9961C359.5 96.3331 359.763 95.6972 360.232 95.2283C360.701 94.7595 361.337 94.4961 362 94.4961H389C389.663 94.4961 390.299 94.7595 390.768 95.2283C391.237 95.6972 391.5 96.3331 391.5 96.9961C391.5 97.6591 391.237 98.295 390.768 98.7639C390.299 99.2327 389.663 99.4961 389 99.4961V99.4961Z" fill="#3F3D56"/>
<path d="M389 106.496H362C361.337 106.496 360.701 106.233 360.232 105.764C359.763 105.295 359.5 104.659 359.5 103.996C359.5 103.333 359.763 102.697 360.232 102.228C360.701 101.759 361.337 101.496 362 101.496H389C389.663 101.496 390.299 101.759 390.768 102.228C391.237 102.697 391.5 103.333 391.5 103.996C391.5 104.659 391.237 105.295 390.768 105.764C390.299 106.233 389.663 106.496 389 106.496V106.496Z" fill="#3F3D56"/>
<path d="M389 113.496H362C361.337 113.496 360.701 113.233 360.232 112.764C359.763 112.295 359.5 111.659 359.5 110.996C359.5 110.333 359.763 109.697 360.232 109.228C360.701 108.759 361.337 108.496 362 108.496H389C389.663 108.496 390.299 108.759 390.768 109.228C391.237 109.697 391.5 110.333 391.5 110.996C391.5 111.659 391.237 112.295 390.768 112.764C390.299 113.233 389.663 113.496 389 113.496V113.496Z" fill="#3F3D56"/>
<path d="M598.292 106.546H597.381L597.032 106.256C598.181 104.886 598.811 103.155 598.812 101.366C598.804 99.8947 598.36 98.4587 597.535 97.2396C596.711 96.0205 595.544 95.0732 594.182 94.5174C592.819 93.9616 591.323 93.8224 589.881 94.1172C588.439 94.412 587.117 95.1277 586.083 96.1738C585.048 97.2199 584.346 98.5493 584.067 99.9941C583.788 101.439 583.943 102.934 584.513 104.29C585.084 105.647 586.044 106.804 587.271 107.615C588.499 108.425 589.94 108.854 591.412 108.846C593.195 108.834 594.919 108.205 596.292 107.066L596.631 107.356V108.276L602.372 114.026L604.092 112.306L598.292 106.546ZM591.412 106.546C590.387 106.55 589.384 106.25 588.53 105.684C587.676 105.118 587.009 104.312 586.613 103.367C586.218 102.422 586.111 101.381 586.307 100.375C586.503 99.3697 586.993 98.4449 587.715 97.7176C588.436 96.9904 589.357 96.4935 590.361 96.2897C591.365 96.086 592.407 96.1845 593.355 96.5729C594.303 96.9613 595.115 97.6221 595.687 98.4717C596.26 99.3214 596.567 100.322 596.571 101.346L596.571 101.366C596.575 102.042 596.446 102.713 596.191 103.339C595.936 103.966 595.56 104.536 595.084 105.017C594.609 105.498 594.043 105.88 593.42 106.143C592.797 106.405 592.128 106.542 591.452 106.546C591.438 106.546 591.425 106.546 591.412 106.546H591.412Z" fill="#3F3D56"/>
<path d="M444.005 191.496H395.5C392.583 191.496 389.785 190.337 387.722 188.274C385.659 186.211 384.5 183.413 384.5 180.496C384.5 177.579 385.659 174.781 387.722 172.718C389.785 170.655 392.583 169.496 395.5 169.496H444.005C446.923 169.496 449.721 170.655 451.784 172.718C453.846 174.781 455.005 177.579 455.005 180.496C455.005 183.413 453.846 186.211 451.784 188.274C449.721 190.337 446.923 191.496 444.005 191.496V191.496Z" fill="#0F766E"/>
<path d="M592.5 215.496H390.5C388.909 215.496 387.383 214.864 386.257 213.739C385.132 212.614 384.5 211.087 384.5 209.496C384.5 207.905 385.132 206.379 386.257 205.253C387.383 204.128 388.909 203.496 390.5 203.496H592.5C594.091 203.496 595.617 204.128 596.743 205.253C597.868 206.379 598.5 207.905 598.5 209.496C598.5 211.087 597.868 212.614 596.743 213.739C595.617 214.864 594.091 215.496 592.5 215.496Z" fill="#E6E6E6"/>
<path d="M464.7 239.496H390.5C388.909 239.496 387.383 238.864 386.257 237.739C385.132 236.614 384.5 235.087 384.5 233.496C384.5 231.905 385.132 230.379 386.257 229.253C387.383 228.128 388.909 227.496 390.5 227.496H464.7C466.291 227.496 467.818 228.128 468.943 229.253C470.068 230.379 470.7 231.905 470.7 233.496C470.7 235.087 470.068 236.614 468.943 237.739C467.818 238.864 466.291 239.496 464.7 239.496Z" fill="#E6E6E6"/>
<path d="M444.005 457.496H395.5C392.583 457.496 389.785 456.337 387.722 454.274C385.659 452.211 384.5 449.413 384.5 446.496C384.5 443.579 385.659 440.781 387.722 438.718C389.785 436.655 392.583 435.496 395.5 435.496H444.005C446.923 435.496 449.721 436.655 451.784 438.718C453.846 440.781 455.005 443.579 455.005 446.496C455.005 449.413 453.846 452.211 451.784 454.274C449.721 456.337 446.923 457.496 444.005 457.496V457.496Z" fill="#0F766E"/>
<path d="M592.5 481.496H390.5C388.909 481.496 387.383 480.864 386.257 479.739C385.132 478.613 384.5 477.087 384.5 475.496C384.5 473.905 385.132 472.379 386.257 471.253C387.383 470.128 388.909 469.496 390.5 469.496H592.5C594.091 469.496 595.617 470.128 596.743 471.253C597.868 472.379 598.5 473.905 598.5 475.496C598.5 477.087 597.868 478.613 596.743 479.739C595.617 480.864 594.091 481.496 592.5 481.496V481.496Z" fill="#E6E6E6"/>
<path d="M464.7 505.496H390.5C388.909 505.496 387.383 504.864 386.257 503.739C385.132 502.613 384.5 501.087 384.5 499.496C384.5 497.905 385.132 496.379 386.257 495.253C387.383 494.128 388.909 493.496 390.5 493.496H464.7C466.291 493.496 467.818 494.128 468.943 495.253C470.068 496.379 470.7 497.905 470.7 499.496C470.7 501.087 470.068 502.613 468.943 503.739C467.818 504.864 466.291 505.496 464.7 505.496V505.496Z" fill="#E6E6E6"/>
<path d="M444.005 580.496H395.5C392.583 580.496 389.785 579.337 387.722 577.274C385.659 575.211 384.5 572.413 384.5 569.496C384.5 566.579 385.659 563.781 387.722 561.718C389.785 559.655 392.583 558.496 395.5 558.496H444.005C446.923 558.496 449.721 559.655 451.784 561.718C453.846 563.781 455.005 566.579 455.005 569.496C455.005 572.413 453.846 575.211 451.784 577.274C449.721 579.337 446.923 580.496 444.005 580.496V580.496Z" fill="#0F766E"/>
<path d="M592.5 604.496H390.5C388.909 604.496 387.383 603.864 386.257 602.739C385.132 601.613 384.5 600.087 384.5 598.496C384.5 596.905 385.132 595.379 386.257 594.253C387.383 593.128 388.909 592.496 390.5 592.496H592.5C594.091 592.496 595.617 593.128 596.743 594.253C597.868 595.379 598.5 596.905 598.5 598.496C598.5 600.087 597.868 601.613 596.743 602.739C595.617 603.864 594.091 604.496 592.5 604.496V604.496Z" fill="#E6E6E6"/>
<path d="M464.7 628.496H390.5C388.909 628.496 387.383 627.864 386.257 626.739C385.132 625.613 384.5 624.087 384.5 622.496C384.5 620.905 385.132 619.379 386.257 618.253C387.383 617.128 388.909 616.496 390.5 616.496H464.7C466.291 616.496 467.818 617.128 468.943 618.253C470.068 619.379 470.7 620.905 470.7 622.496C470.7 624.087 470.068 625.613 468.943 626.739C467.818 627.864 466.291 628.496 464.7 628.496V628.496Z" fill="#E6E6E6"/>
<path d="M621 394.996H235C232.746 394.993 230.586 394.097 228.992 392.504C227.399 390.91 226.503 388.75 226.5 386.496V281.496C226.503 279.243 227.399 277.082 228.992 275.488C230.586 273.895 232.746 272.999 235 272.996H621C623.254 272.999 625.414 273.895 627.008 275.489C628.601 277.082 629.497 279.243 629.5 281.496V386.496C629.497 388.75 628.601 390.91 627.007 392.504C625.414 394.097 623.254 394.993 621 394.996V394.996Z" fill="#0F766E"/>
<path d="M96.2316 519.916C99.9216 545.806 80.3816 660.506 82.5516 660.496L110.612 660.346C111.612 658.426 124.492 596.536 128.532 586.606C134.172 572.826 139.862 558.876 142.082 544.156C144.172 530.336 143.142 516.256 141.782 502.346C141.845 501.933 141.809 501.51 141.676 501.113C141.544 500.715 141.319 500.356 141.02 500.062C140.721 499.769 140.357 499.552 139.957 499.427C139.558 499.303 139.134 499.275 138.722 499.346L101.072 497.406C93.3116 497.006 91.4716 495.306 92.6516 502.926C93.4715 508.616 95.4116 514.156 96.2316 519.916Z" fill="#2F2E41"/>
<path d="M103.632 456.966C95.9817 467.966 87.9617 480.626 90.5017 493.796C92.4317 503.796 100.052 511.546 107.242 518.796C135.982 547.656 192.652 674.996 192.652 674.996C220 657.496 192 675.496 219.752 656.996C217.292 656.806 161.402 455.896 156.772 455.626C138.042 454.386 121.882 452.556 103.632 456.966Z" fill="#2F2E41"/>
<path d="M133.89 352.267C130.004 348.802 102.698 338.115 102.698 338.115C102.196 338.049 101.686 338.064 101.189 338.161C99.6351 338.553 98.9261 340.484 99.258 342.045C99.5899 343.607 96.8667 369.27 96.1651 380.94C94.9356 401.307 106.93 447.443 106.824 448.854C106.413 453.885 104.21 458.601 100.616 462.145C101.55 463.305 160.881 465.631 164.917 467.004C165.731 465.97 160.323 392.791 160.074 388.657C159.659 382.381 139.02 357.019 133.89 352.267Z" fill="#FDE689"/>
<path d="M91.5728 511.055C92.9789 510.355 94.2144 509.356 95.1923 508.127C96.1703 506.898 96.867 505.47 97.2332 503.942C97.5995 502.415 97.6264 500.826 97.3122 499.288C96.9979 497.749 96.3501 496.298 95.4144 495.036L120.447 356.496L97.0873 356.188L79.7033 493.187C77.6886 494.899 76.3721 497.291 76.0031 499.909C75.6342 502.528 76.2385 505.19 77.7016 507.393C79.1647 509.595 81.3848 511.185 83.9414 511.859C86.498 512.534 89.2133 512.248 91.5729 511.055H91.5728Z" fill="#FFB8B8"/>
<path d="M91.3715 366.776C90.3973 366.847 89.427 366.594 88.6116 366.056C87.2216 364.866 98.5616 346.656 100.802 346.386C108.092 345.546 115.592 345.266 122.662 347.236C129.732 349.206 136.382 353.686 139.542 360.316C140.862 363.076 131.292 376.966 126.942 374.926C121.732 372.486 98.2315 366.946 91.3715 366.776Z" fill="#FDE689"/>
<path d="M117.102 336.623C131.593 336.623 143.341 324.875 143.341 310.384C143.341 295.893 131.593 284.145 117.102 284.145C102.611 284.145 90.8633 295.893 90.8633 310.384C90.8633 324.875 102.611 336.623 117.102 336.623Z" fill="#FFB8B8"/>
<path d="M91.3299 353.767C94.9761 354.149 98.6598 353.61 102.044 352.2C105.428 350.79 108.405 348.554 110.701 345.696C112.998 342.838 114.541 339.45 115.19 335.842C115.839 332.234 115.573 328.521 114.415 325.042C113.371 321.902 111.626 319.025 110.67 315.858C109.713 312.691 109.687 308.946 111.808 306.406C115.958 301.438 123.956 304.563 130.353 303.576C137.17 302.523 142.4 295.983 142.945 289.108C143.491 282.232 139.907 275.428 134.572 271.056C129.237 266.684 122.356 264.532 115.492 263.857C106.676 262.991 97.786 264.409 89.6774 267.975C81.5688 271.541 74.5147 277.134 69.1946 284.216C63.8744 291.299 60.4673 299.632 59.3013 308.413C58.1352 317.194 59.2496 326.127 62.5371 334.352C65.405 341.528 70.0893 348.211 76.7429 352.141C83.3965 356.071 92.1842 356.826 98.8157 352.859" fill="#2F2E41"/>
<path d="M372.277 320.996H305.223C300.965 320.996 297.5 316.062 297.5 309.996C297.5 303.931 300.965 298.996 305.223 298.996H372.277C376.535 298.996 380 303.931 380 309.996C380 316.062 376.535 320.996 372.277 320.996Z" fill="white"/>
<path d="M552.5 344.996H303.5C301.909 344.996 300.383 344.364 299.257 343.239C298.132 342.114 297.5 340.587 297.5 338.996C297.5 337.405 298.132 335.879 299.257 334.753C300.383 333.628 301.909 332.996 303.5 332.996H552.5C554.091 332.996 555.617 333.628 556.743 334.753C557.868 335.879 558.5 337.405 558.5 338.996C558.5 340.587 557.868 342.114 556.743 343.239C555.617 344.364 554.091 344.996 552.5 344.996V344.996Z" fill="#E6E6E6"/>
<path d="M424.7 368.996H303.5C301.909 368.996 300.383 368.364 299.257 367.239C298.132 366.114 297.5 364.587 297.5 362.996C297.5 361.405 298.132 359.879 299.257 358.753C300.383 357.628 301.909 356.996 303.5 356.996H424.7C426.291 356.996 427.818 357.628 428.943 358.753C430.068 359.879 430.7 361.405 430.7 362.996C430.7 364.587 430.068 366.114 428.943 367.239C427.818 368.364 426.291 368.996 424.7 368.996V368.996Z" fill="#E6E6E6"/>
<path d="M790 700.496H0V702.496H790V700.496Z" fill="#3F3D56"/>
</g>
<defs>
<clipPath id="clip0_322_2">
<rect width="790" height="701.992" fill="white" transform="translate(0 0.503906)"/>
</clipPath>
</defs>
</svg>
